<svg width="68" height="68" viewBox="0 0 68 68" fill="none" xmlns="http://www.w3.org/2000/svg">
<g clip-path="url(#clip0)" filter="url(#filter0_d)">
<rect x="8" y="8" width="52" height="52" rx="8.43243" fill="white"/>
<path d="M54.7498 28.8806C55.282 31.0441 55.4418 33.2062 55.2732 35.2941C55.1507 36.8125 54.8603 38.2792 54.4315 39.6869C52.3912 46.266 47.0695 51.6058 39.9065 53.3678C29.0305 56.0433 18.0654 49.4078 15.39 38.5318C14.2753 34.0001 14.7743 29.4745 16.5272 25.5086C18.1551 21.7905 20.9055 18.6025 24.4627 16.4252C26.2121 15.3437 28.1503 14.5259 30.2261 14.0153C41.0873 11.4055 52.0815 18.0338 54.7498 28.8806Z" fill="#E0ECFF"/>
<path d="M54.7498 28.8804C55.282 31.0439 55.4418 33.206 55.2733 35.2939C55.1507 36.8123 54.8604 38.279 54.4316 39.6867C54.3438 39.7083 54.2854 39.7227 54.1977 39.7443C41.3335 42.9087 28.3285 35.0388 25.164 22.1746C24.6893 20.245 24.4701 18.3456 24.47 16.4542C26.2193 15.3728 28.1575 14.5549 30.2333 14.0443C41.0873 11.4053 52.0816 18.0336 54.7498 28.8804Z" fill="#F2F8FF"/>
<path d="M51.4085 10.2612C51.4085 10.2612 48.2119 7.85392 43.9619 13.6433C41.4737 17.0149 37.7783 22.9158 35.1698 27.1852C33.3037 30.1867 31.9954 32.4309 31.9954 32.4309L34.0435 33.4464L35.6 35.1099C35.6 35.1099 37.367 33.2179 39.7283 30.5907C43.0941 26.8792 47.7069 21.6827 50.268 18.3552C54.6344 12.6612 51.4085 10.2612 51.4085 10.2612Z" fill="url(#paint0_linear)"/>
<path d="M37.8881 28.2828C36.8614 27.5122 35.8984 27.253 35.1613 27.1553C33.2951 30.1568 31.9868 32.401 31.9868 32.401L34.035 33.4165L35.5914 35.08C35.5914 35.08 37.3584 33.188 39.7197 30.5608C39.4301 29.8879 38.9148 29.0535 37.8881 28.2828Z" fill="url(#paint1_linear)"/>
<path d="M32.9693 57.1828C32.9693 57.1828 32.3113 57.4067 30.5464 56.7866C30.3058 56.6908 30.036 56.6021 29.7589 56.4842C29.1027 56.2116 28.3301 55.8435 27.4337 55.3509C26.8652 55.0567 26.246 54.6819 25.5831 54.2559C24.228 53.411 22.662 52.3389 20.8415 50.9884C20.1206 50.4526 19.429 49.9096 18.8101 49.4107C18.5043 49.1759 18.2277 48.9339 17.9512 48.6918C16.9757 47.8776 16.146 47.1515 15.4476 46.4551C14.9673 46.0152 14.5527 45.5901 14.2037 45.1798C13.9055 44.8501 13.6074 44.5204 13.3821 44.2347C13.2877 44.1029 13.164 43.9783 13.0768 43.8758C11.5069 41.9055 11.5394 41.0293 11.5394 41.0293C16.626 38.0107 21.5785 31.8005 21.5785 31.8005L24.1244 30.5541L32.3717 35.5947L39.5253 42.1135L39.0329 44.9012C39.0472 44.9596 34.4954 51.4124 32.9693 57.1828Z" fill="url(#paint2_linear)"/>
<path d="M25.1609 32.6243C20.3258 38.6816 15.7986 42.4617 13.3601 44.2708C13.2657 44.139 13.142 44.0144 13.0548 43.9119C15.4641 42.11 19.9692 38.3662 24.7823 32.3454L25.1609 32.6243Z" fill="#FFA931"/>
<path d="M27.4354 55.3512C26.8669 55.057 26.2477 54.6822 25.5848 54.2562C27.3691 47.7711 34.5669 38.7141 34.8971 38.2918L36.5135 39.5685C36.4253 39.7142 28.7285 49.3901 27.4354 55.3512Z" fill="#FFA931"/>
<path d="M30.5768 56.7794C30.3362 56.6835 30.0663 56.5949 29.7893 56.477C29.7431 49.357 36.7523 41.9277 37.0676 41.5711L37.6352 42.1136C37.5398 42.2301 30.3035 49.8703 30.5768 56.7794Z" fill="#FFA931"/>
<path d="M18.8181 49.4393C18.5123 49.2044 18.2357 48.9624 17.9591 48.7204C23.6451 43.601 29.8183 35.1681 29.8844 35.0588L30.7874 35.7049C30.6921 35.8213 24.5702 44.2106 18.8181 49.4393Z" fill="#FFA931"/>
<path d="M15.4248 46.4908C14.9445 46.0509 14.5298 45.6258 14.1809 45.2155C20.6304 40.9315 26.62 32.7608 26.6934 32.6808L28.1208 33.6939C27.8198 34.109 22.0138 42.0175 15.4248 46.4908Z" fill="#FFA931"/>
<path d="M41.2639 41.997C42.1083 40.7661 40.1285 37.1293 34.4268 32.8578C28.7252 28.5863 24.7268 27.7095 23.7659 28.845C22.8122 30.0098 21.5422 31.7795 21.5422 31.7795C21.5422 31.7795 26.9312 33.7715 31.271 37.0448C35.6109 40.318 39.0402 44.9315 39.0402 44.9315C39.0402 44.9315 40.4195 43.2279 41.2639 41.997Z" fill="url(#paint3_linear)"/>
<g opacity="0.5">
<path opacity="0.5" d="M31.5586 32.539C30.1455 31.5844 28.6443 30.7754 27.0841 30.105C25.7717 29.5597 24.4867 29.5037 23.7147 30.9029C23.4133 31.4421 24.2511 31.9491 24.5161 31.3878C25.2882 29.9887 26.9126 31.0464 27.9695 31.5615C29.0264 32.0767 30.0464 32.6939 31.0443 33.3476C31.5908 33.6783 32.0758 32.8769 31.5586 32.539Z" fill="white"/>
</g>
<g opacity="0.5">
<path opacity="0.5" d="M33.1564 34.627C33.7412 34.4831 33.511 33.5476 32.9263 33.6914C32.3123 33.8424 32.5425 34.778 33.1564 34.627Z" fill="white"/>
</g>
<g opacity="0.5">
<path opacity="0.5" d="M30.5279 38.4364C29.0636 37.5254 27.5993 36.6144 26.1421 35.7326C24.94 35.0051 23.6722 34.2628 22.2783 34.0165C20.9794 33.7779 20.3181 34.8708 19.6356 35.7518C18.6302 37.0844 17.4646 38.2702 16.1898 39.39C15.7282 39.7826 16.3974 40.4861 16.8517 40.0643C17.8481 39.1991 18.7937 38.2533 19.6592 37.2343C20.0407 36.7684 20.415 36.2732 20.7893 35.7781C21.3984 34.9771 21.7862 34.7887 22.7271 35.0844C24.0035 35.4835 25.1471 36.2254 26.2472 36.916C27.493 37.6947 28.768 38.4663 30.0137 39.245C30.5602 39.5757 31.0451 38.7743 30.5279 38.4364Z" fill="white"/>
</g>
<g opacity="0.5">
<path opacity="0.5" d="M15.2595 41.6646C15.8442 41.5208 15.6141 40.5852 15.0294 40.729C14.4518 40.9021 14.6748 41.8084 15.2595 41.6646Z" fill="white"/>
</g>
<g opacity="0.5">
<path opacity="0.5" d="M49.2906 12.2395C48.1072 12.3446 47.3303 13.0938 46.5458 13.9379C45.7464 14.8477 44.9542 15.7867 44.2276 16.7406C42.6499 18.772 41.2324 20.95 39.9897 23.2091C39.6883 23.7483 40.519 24.2261 40.7912 23.6941C41.8646 21.7557 43.0474 19.8834 44.3466 18.1066C45.0219 17.1963 45.7335 16.3081 46.4524 15.4491C47.1785 14.6194 48.0598 13.2864 49.2432 13.1813C49.8567 13.1544 49.8969 12.1834 49.2906 12.2395Z" fill="white"/>
</g>
<g opacity="0.5">
<path opacity="0.5" d="M39.2644 25.9307C39.8491 25.7869 39.619 24.8513 39.0343 24.9951C38.4567 25.1682 38.6797 26.0746 39.2644 25.9307Z" fill="white"/>
</g>
<path d="M29.7395 13.2302L22.1565 10.5425C21.6537 10.3643 21.1007 10.3931 20.6192 10.6227C20.1377 10.8522 19.767 11.2636 19.5888 11.7664L16.9012 19.3494C16.723 19.8522 16.7518 20.4051 16.9813 20.8867C17.2108 21.3682 17.6222 21.7388 18.125 21.917L25.708 24.6047C26.2108 24.7829 26.7638 24.7541 27.2453 24.5246C27.7269 24.295 28.0975 23.8836 28.2757 23.3809L30.9634 15.7978C31.1416 15.2951 31.1127 14.7421 30.8832 14.2605C30.6537 13.779 30.2423 13.4084 29.7395 13.2302ZM21.7086 11.8064L29.2916 14.494C29.4592 14.5534 29.5963 14.677 29.6728 14.8375C29.7493 14.998 29.7589 15.1823 29.6995 15.3499L27.8271 20.6327L26.4164 18.1909C26.1945 17.822 25.8513 17.5418 25.4456 17.398C25.0398 17.2542 24.5967 17.2558 24.1921 17.4025L18.2322 19.6077L20.8527 12.2143C20.9121 12.0467 21.0356 11.9096 21.1961 11.8331C21.3566 11.7566 21.541 11.747 21.7086 11.8064Z" fill="#3B71FD"/>
<path d="M21.8521 15.4134C22.3756 15.5989 22.9504 15.3249 23.136 14.8014C23.3215 14.2779 23.0475 13.7031 22.524 13.5176C22.0006 13.3321 21.4258 13.606 21.2402 14.1295C21.0547 14.653 21.3286 15.2278 21.8521 15.4134Z" fill="#3B71FD"/>
<path d="M53.4924 44.4605C53.6101 44.29 53.728 44.1149 53.8454 43.9339C56.8037 39.3673 55.4273 35.9415 55.4273 35.9415L55.3655 35.3094L54.7631 35.5112C54.7631 35.5112 51.0744 35.6557 48.1161 40.2221C47.9988 40.4031 47.8873 40.582 47.78 40.759L45.4747 41.252L42.799 46.2668L43.414 46.6654L45.512 44.6057L45.9854 44.5045C45.6485 45.4499 45.531 46.0326 45.531 46.0326L49.5996 48.6681C49.5996 48.6681 50.083 48.3227 50.8082 47.6287L50.9093 48.1019L49.8874 50.8587L50.5026 51.2572L53.9855 46.7652L53.4924 44.4605ZM51.5273 41.2335C50.7789 40.7488 50.5661 39.7503 51.0509 39.0019C51.5352 38.2544 52.534 38.0404 53.2817 38.525C54.0297 39.0095 54.2434 40.0095 53.7594 40.7564C53.2744 41.5051 52.2752 41.7179 51.5273 41.2335ZM45.4521 46.9367C44.0078 48.675 45.6682 49.9974 45.1553 51.002C45.1553 51.002 47.8576 51.0419 48.8098 49.112L48.2809 48.7616C47.4171 49.4194 45.8905 48.8522 45.996 47.2889L45.4521 46.9367Z" fill="url(#paint4_linear)"/>
</g>
<defs>
<filter id="filter0_d" x="0.844037" y="0.844037" width="66.3119" height="66.3119" filterUnits="userSpaceOnUse" color-interpolation-filters="sRGB">
<feFlood flood-opacity="0" result="BackgroundImageFix"/>
<feColorMatrix in="SourceAlpha" type="matrix" values="0 0 0 0 0 0 0 0 0 0 0 0 0 0 0 0 0 0 127 0"/>
<feOffset/>
<feGaussianBlur stdDeviation="3.57798"/>
<feColorMatrix type="matrix" values="0 0 0 0 0.609417 0 0 0 0 0.545833 0 0 0 0 1 0 0 0 0.25 0"/>
<feBlend mode="normal" in2="BackgroundImageFix" result="effect1_dropShadow"/>
<feBlend mode="normal" in="SourceGraphic" in2="effect1_dropShadow" result="shape"/>
</filter>
<linearGradient id="paint0_linear" x1="34.0202" y1="34.296" x2="53.1731" y2="19.3685" gradientUnits="userSpaceOnUse">
<stop stop-color="#033CD0"/>
<stop offset="1" stop-color="#3B71FD"/>
</linearGradient>
<linearGradient id="paint1_linear" x1="33.1867" y1="35.2328" x2="39.6758" y2="30.6316" gradientUnits="userSpaceOnUse">
<stop stop-color="#033CD0"/>
<stop offset="1" stop-color="#3B71FD"/>
</linearGradient>
<linearGradient id="paint2_linear" x1="14.1436" y1="47.4769" x2="34.205" y2="42.5419" gradientUnits="userSpaceOnUse">
<stop stop-color="#FFA931"/>
<stop offset="1" stop-color="#C1770E"/>
</linearGradient>
<linearGradient id="paint3_linear" x1="26.3593" y1="46.955" x2="41.0492" y2="37.5612" gradientUnits="userSpaceOnUse">
<stop stop-color="#033CD0"/>
<stop offset="1" stop-color="#3B71FD"/>
</linearGradient>
<linearGradient id="paint4_linear" x1="44.8657" y1="51.6475" x2="57.1037" y2="43.6354" gradientUnits="userSpaceOnUse">
<stop stop-color="#033CD0"/>
<stop offset="1" stop-color="#3B71FD"/>
</linearGradient>
<clipPath id="clip0">
<rect width="52" height="52" fill="white" transform="translate(8 8)"/>
</clipPath>
</defs>
</svg>
